<?xml version="1.0"?>
<svg width="250mm" height="200mm" viewBox="0 0 2500 1500"
     xmlns="http://www.w3.org/2000/svg"
     xmlns:xlink="http://www.w3.org/1999/xlink"
     xmlns:ev="http://www.w3.org/2001/xml-events">
<g font-family="Verdana" font-size="8">
  <text x="200" y="40">Unused Non-Parent Objects:</text>
  <text x="220" y="60">CORE_BOTTOM ZN</text>
  <text x="220" y="80">CORE_MID ZN</text>
  <text x="220" y="100">CORE_TOP ZN</text>
  <text x="220" y="120">PERIMETER_BOT_ZN_1 ZN</text>
  <text x="220" y="140">PERIMETER_BOT_ZN_2 ZN</text>
  <text x="220" y="160">PERIMETER_BOT_ZN_3 ZN</text>
  <text x="220" y="180">PERIMETER_BOT_ZN_4 ZN</text>
  <text x="220" y="200">PERIMETER_MID_ZN_1 ZN</text>
  <text x="220" y="220">PERIMETER_MID_ZN_2 ZN</text>
  <text x="220" y="240">PERIMETER_MID_ZN_3 ZN</text>
  <text x="220" y="260">PERIMETER_MID_ZN_4 ZN</text>
  <text x="220" y="280">PERIMETER_TOP_ZN_1 ZN</text>
  <text x="220" y="300">PERIMETER_TOP_ZN_2 ZN</text>
  <text x="220" y="320">PERIMETER_TOP_ZN_3 ZN</text>
  <text x="220" y="340">PERIMETER_TOP_ZN_4 ZN</text>
  <text x="220" y="360">OutdoorAir:Node</text>
  <text x="220" y="380">CORE_BOTTOM ZN IDEAL LOADS AIR SYSTEM</text>
  <text x="220" y="400">CORE_MID ZN IDEAL LOADS AIR SYSTEM</text>
  <text x="220" y="420">CORE_TOP ZN IDEAL LOADS AIR SYSTEM</text>
  <text x="220" y="440">PERIMETER_BOT_ZN_1 ZN IDEAL LOADS AIR SYSTEM</text>
  <text x="220" y="460">PERIMETER_BOT_ZN_2 ZN IDEAL LOADS AIR SYSTEM</text>
  <text x="220" y="480">PERIMETER_BOT_ZN_3 ZN IDEAL LOADS AIR SYSTEM</text>
  <text x="220" y="500">PERIMETER_BOT_ZN_4 ZN IDEAL LOADS AIR SYSTEM</text>
  <text x="220" y="520">PERIMETER_MID_ZN_1 ZN IDEAL LOADS AIR SYSTEM</text>
  <text x="220" y="540">PERIMETER_MID_ZN_2 ZN IDEAL LOADS AIR SYSTEM</text>
  <text x="220" y="560">PERIMETER_MID_ZN_3 ZN IDEAL LOADS AIR SYSTEM</text>
  <text x="220" y="580">PERIMETER_MID_ZN_4 ZN IDEAL LOADS AIR SYSTEM</text>
  <text x="220" y="600">PERIMETER_TOP_ZN_1 ZN IDEAL LOADS AIR SYSTEM</text>
  <text x="220" y="620">PERIMETER_TOP_ZN_2 ZN IDEAL LOADS AIR SYSTEM</text>
  <text x="220" y="640">PERIMETER_TOP_ZN_3 ZN IDEAL LOADS AIR SYSTEM</text>
  <text x="220" y="660">PERIMETER_TOP_ZN_4 ZN IDEAL LOADS AIR SYSTEM</text>
  <text x="200" y="700">
The following are not supported: objects related to controls or ZoneHVAC:IdealLoadsAirSystem</text>
</g>
</svg>
